<?xml version="1.0" encoding="UTF-8" standalone="no"?>
<!-- Created with Inkscape (http://www.inkscape.org/) -->

<svg
   xmlns:dc="http://purl.org/dc/elements/1.1/"
   xmlns:cc="http://creativecommons.org/ns#"
   xmlns:rdf="http://www.w3.org/1999/02/22-rdf-syntax-ns#"
   xmlns:svg="http://www.w3.org/2000/svg"
   xmlns="http://www.w3.org/2000/svg"
   version="1.1"
   width="2332"
   height="1520"
   id="svg2">
  <metadata
     id="metadata8">
    <rdf:RDF>
      <cc:Work
         rdf:about="">
        <dc:format>image/svg+xml</dc:format>
        <dc:type
           rdf:resource="http://purl.org/dc/dcmitype/StillImage" />
        <dc:title></dc:title>
      </cc:Work>
    </rdf:RDF>
  </metadata>
  <defs
     id="defs6" />
  <style
     id="style3" />
  <g
     transform="matrix(1.00746,0,0,0.992599,0,1264)"
     id="text4229"
     style="font-size:43.479378px;font-style:normal;font-variant:normal;font-weight:bold;font-stretch:normal;line-height:125%;letter-spacing:0px;word-spacing:0px;fill:#333333;fill-opacity:1;stroke:none;font-family:BoomBox 2;-inkscape-font-specification:BoomBox 2 Bold" />
  <g
     transform="matrix(13.4653,0,0,13.4515,-573.958,-627.6)"
     id="g3891">
    <path
       d="m 73.7188,46.6562 c -3.3577,2e-4 -5.771,0.2035 -7.375,0.625 -2.2394,0.6395 -4.107,1.6015 -5.5938,2.875 l -0.031,0 c -1.4801,1.2372 -2.7496,2.8979 -3.75,4.9376 -0.9809,2.0824 -1.6147,4.7599 -1.9688,8.0624 a 0.742625,0.742625 0 0 0 0,0.031 C 54.8,65.3056 54.6953,69.534 54.6562,76 c -0.038,6.436 -0.3785,10.9876 -0.9687,13.5312 -0.5888,2.5369 -1.7659,4.4664 -3.5313,5.9063 -1.712,1.3899 -3.9532,2.1449 -6.8124,2.2187 a 0.742625,0.742625 0 0 0 -0.7188,0.75 l 0,9.4378 a 0.742625,0.742625 0 0 0 0.7188,0.75 c 2.8559,0.07 5.0997,0.855 6.8124,2.281 1.7653,1.44 2.9425,3.369 3.5313,5.906 0.5878,2.534 0.9299,7.341 0.9687,14.281 0.039,6.977 0.2735,11.99 0.75,15.126 a 0.742625,0.742625 0 0 0 0,0.03 c 0.5199,3.156 1.6224,5.786 3.3438,7.875 1.7079,2.112 3.9037,3.661 6.5,4.594 1.8693,0.678 4.635,0.968 8.4688,0.968 l 3.25,0 a 0.742625,0.742625 0 0 0 0.75,-0.75 l 0,-9.094 a 0.742625,0.742625 0 0 0 -0.75,-0.75 l -1.7813,0 c -3.607,0 -5.9618,-0.582 -6.9687,-1.406 -1.0223,-0.861 -1.7623,-2.493 -2.0626,-5 -3e-4,0 4e-4,-0.03 0,-0.03 -0.1395,-1.304 -0.2187,-5.856 -0.2187,-13.375 0,-8.374 -0.9544,-14.406 -3,-18.25 l 0.031,0 c -1.7788,-3.446 -4.638,-6.071 -8.375,-7.906 3.0016,-1.613 5.4287,-3.3936 6.9687,-5.469 1.8066,-2.3795 3.0092,-5.6918 3.7187,-9.9062 0.4489,-2.8132 0.6563,-9.1686 0.6563,-19.3126 0,-4.9631 0.7584,-8.0753 1.7813,-9.1874 1.0649,-1.1894 3.5335,-1.9687 7.4687,-1.9688 l 1.7813,0 a 0.742625,0.742625 0 0 0 0.75,-0.75 l 0,-9.0938 a 0.742625,0.742625 0 0 0 -0.75,-0.75 l -3.25,0 z m 107.6562,0 a 0.742625,0.742625 0 0 0 -0.687,0.75 l 0,9.0938 a 0.742625,0.742625 0 0 0 0.75,0.75 l 1.812,0 c 3.608,1e-4 5.914,0.5957 6.875,1.4062 a 0.742625,0.742625 0 0 0 0.03,0 c 1.055,0.8298 1.772,2.425 2.032,4.9063 0.169,1.3112 0.281,5.9021 0.281,13.4375 0,8.3698 0.884,14.3623 2.812,18.0938 1.727,3.3043 4.743,5.9012 8.657,8.0002 -2.933,1.43 -5.349,3.266 -7.063,5.656 -1.953,2.681 -3.243,6.217 -3.875,10.594 a 0.742625,0.742625 0 0 0 0,0.03 c -0.364,2.712 -0.531,8.79 -0.531,18.469 0,5.002 -0.729,8.139 -1.75,9.25 a 0.742625,0.742625 0 0 0 -0.03,0 c -1.065,1.189 -3.502,1.968 -7.438,1.968 l -1.812,0 a 0.742625,0.742625 0 0 0 -0.75,0.75 l 0,9.094 a 0.742625,0.742625 0 0 0 0.75,0.75 l 3.25,0 c 3.36,0 5.791,-0.19 7.406,-0.656 2.24,-0.639 4.107,-1.634 5.594,-2.906 l 0.03,0 c 1.474,-1.235 2.695,-2.874 3.656,-4.906 0,0 0,-0.02 0,-0.03 1.021,-2.049 1.71,-4.732 2.063,-8.062 0.2,-2.119 0.303,-6.378 0.343,-12.844 0.04,-6.437 0.379,-10.968 0.969,-13.469 0.589,-2.54 1.74,-4.467 3.469,-5.906 1.752,-1.43 3.987,-2.205 6.843,-2.281 a 0.742625,0.742625 0 0 0 0.75,-0.75 l 0,-9.4378 a 0.742625,0.742625 0 0 0 -0.75,-0.75 c -2.855,-0.074 -5.09,-0.8507 -6.843,-2.2812 -1.721,-1.4388 -2.883,-3.3523 -3.469,-5.8438 -0.589,-2.5332 -0.929,-7.3407 -0.969,-14.2812 -0.04,-6.9617 -0.298,-11.9817 -0.812,-15.125 0,-0.011 0,-0.021 0,-0.031 -0.482,-3.1452 -1.6,-5.8174 -3.313,-7.9376 -1.71,-2.1146 -3.869,-3.638 -6.468,-4.5312 -1.871,-0.6791 -4.667,-0.9686 -8.5,-0.9688 l -3.25,0 a 0.742625,0.742625 0 0 0 -0.06,0 z m -107.6562,1.5 2.5312,0 0,7.625 -1.0625,0 c -4.116,2e-4 -6.9955,0.6875 -8.5625,2.4376 -1.6095,1.75 -2.1562,5.0948 -2.1562,10.1874 0,10.1231 -0.2535,16.5694 -0.6563,19.0938 -0.684,4.0624 -1.8379,7.1119 -3.4375,9.2188 a 0.742625,0.742625 0 0 0 0,0.031 c -1.5666,2.1114 -4.0974,4.0452 -7.625,5.7502 a 0.742625,0.742625 0 0 0 0.031,1.344 c 4.1264,1.725 7.0286,4.327 8.8438,7.844 1.8252,3.429 2.8438,9.304 2.8438,17.562 0,7.547 0.048,11.992 0.2187,13.562 0.3218,2.733 1.1434,4.778 2.5937,6 1.5477,1.267 4.1587,1.719 7.9063,1.719 l 1.0625,0 0,7.625 -2.5312,0 c -3.7531,0 -6.4319,-0.317 -7.9688,-0.875 -2.3585,-0.847 -4.3003,-2.215 -5.8438,-4.125 -1.53,-1.857 -2.5447,-4.234 -3.0312,-7.187 -0.4523,-2.976 -0.7113,-7.961 -0.75,-14.907 -0.039,-6.983 -0.3494,-11.82 -1,-14.624 -0.65,-2.801 -2.0031,-5.065 -4.0312,-6.719 -1.8348,-1.528 -4.2338,-2.275 -7,-2.469 l 0,-8.219 c 2.7634,-0.1901 5.1644,-0.9472 7,-2.4374 2.028,-1.6543 3.3812,-3.9183 4.0312,-6.7188 0.6482,-2.7939 0.9612,-7.3928 1,-13.875 0.039,-6.4522 0.1566,-10.7056 0.3438,-12.6875 0.341,-3.1815 0.9721,-5.7019 1.8437,-7.5625 0,-0.01 0,-0.023 0,-0.031 0.9283,-1.8853 2.0501,-3.3603 3.3437,-4.4376 a 0.742625,0.742625 0 0 0 0.031,0 c 1.2908,-1.1105 2.9587,-1.9982 5.0313,-2.5937 0.01,0 0.025,0 0.031,0 1.3409,-0.3487 3.6832,-0.5312 6.9688,-0.5313 z m 108.4692,0 2.5,0 c 3.752,1e-4 6.462,0.3166 8,0.875 2.354,0.8089 4.27,2.155 5.812,4.0626 1.531,1.8953 2.552,4.2981 3,7.25 0.489,2.9694 0.743,7.9616 0.781,14.9062 0.04,6.9833 0.38,11.8207 1.031,14.625 0.65,2.7596 1.951,5.0027 3.938,6.6562 a 0.742625,0.742625 0 0 0 0.03,0 c 1.868,1.5242 4.263,2.3062 7.031,2.5 l 0,8.2188 c -2.767,0.196 -5.163,0.945 -7.031,2.469 a 0.742625,0.742625 0 0 0 -0.03,0 c -1.989,1.655 -3.289,3.921 -3.938,6.719 -0.65,2.758 -0.992,7.329 -1.031,13.812 -0.04,6.452 -0.156,10.706 -0.343,12.688 -0.343,3.23 -0.967,5.747 -1.876,7.562 a 0.742625,0.742625 0 0 0 -0.03,0.03 c -0.892,1.894 -1.985,3.357 -3.281,4.438 -1.298,1.115 -2.976,1.999 -5.062,2.593 -1.328,0.384 -3.703,0.594 -7,0.594 l -2.5,0 0,-7.625 1.062,0 c 4.103,0 6.961,-0.701 8.531,-2.437 0,0 0,-0.03 0,-0.03 1.599,-1.758 2.188,-5.105 2.188,-10.218 0,-9.661 0.168,-15.811 0.5,-18.282 0.608,-4.21 1.828,-7.512 3.593,-9.937 1.771,-2.469 4.291,-4.393 7.594,-5.781 a 0.742625,0.742625 0 0 0 0.03,-1.344 c -4.346,-2.076 -7.33,-4.7781 -9.063,-8.0938 -1.71,-3.3077 -2.656,-9.1448 -2.656,-17.4062 0,-7.5313 -0.103,-11.9564 -0.313,-13.5938 l 0.03,0 c -0.282,-2.6901 -1.136,-4.6913 -2.626,-5.875 l 0.03,-0.031 c 0,-0.01 -0.03,0.01 -0.03,0 -1.517,-1.2655 -4.08,-1.7186 -7.812,-1.7188 l -1.062,0 0,-7.625 z m -34.876,12.9063 c -2.914,0 -5.203,1.3446 -6.468,3.875 l -16.094,31.75 a 0.742625,0.742625 0 0 0 0.688,1.0937 l 9.218,0 a 0.742625,0.742625 0 0 0 0.656,-0.4062 l 11.907,-23.4688 c 0.03,-0.062 -0.06,-0.031 0.125,-0.031 0.139,0 0.02,-0.051 0.06,0.031 l 7.5,14.6876 -10.187,0 A 0.742625,0.742625 0 0 0 144.062,89 l -3.937,7.6875 a 0.742625,0.742625 0 0 0 0.687,1.0937 l 28.344,0 a 0.742625,0.742625 0 0 0 0.688,-1.0937 l -16.125,-31.75 c -0.636,-1.1985 -1.526,-2.1591 -2.625,-2.8437 -1.088,-0.6973 -2.358,-1.0313 -3.782,-1.0313 z M 91.4062,61.625 a 0.742625,0.742625 0 0 0 -0.5,1.0625 L 107,94.4375 a 0.742625,0.742625 0 0 0 0.03,0 c 1.305,2.5199 3.717,3.8438 6.844,3.8437 1.499,0 2.869,-0.3157 4.063,-0.9687 1.2,-0.6564 2.139,-1.6334 2.781,-2.875 l 16.125,-31.75 a 0.742625,0.742625 0 0 0 -0.656,-1.0625 l -9.688,0 a 0.742625,0.742625 0 0 0 -0.656,0.4062 l -11.938,23.4063 a 0.742625,0.742625 0 0 0 -0.03,0.031 c -0.05,0.1168 0.06,0.031 -0.06,0.031 -0.05,0 -0.05,-0.035 -0.06,-0.062 l -0.03,-0.031 -11.875,-23.375 a 0.742625,0.742625 0 0 0 -0.656,-0.4062 l -9.6255,0 a 0.742625,0.742625 0 0 0 -0.1563,0 z m 55.9058,0.9062 c 1.191,0 2.139,0.2806 2.969,0.8126 a 0.742625,0.742625 0 0 0 0.03,0 c 0.875,0.5445 1.568,1.2887 2.094,2.2812 l -0.03,0 15.563,30.6562 -25.907,0 3.125,-6.2187 10.938,0 A 0.742625,0.742625 0 0 0 156.75,89 l -8,-15.75 c -0.25,-0.5059 -0.849,-0.8438 -1.406,-0.8438 -0.562,0 -1.173,0.3327 -1.438,0.8438 l -11.687,23.0312 -7.563,0 15.5,-30.6562 c 1.059,-2.119 2.667,-3.0938 5.156,-3.0938 z m -54.562,0.5626 8,0 11.656,23 a 0.742625,0.742625 0 0 0 0.03,0.031 c 0.265,0.4871 0.806,0.875 1.374,0.875 0.562,0 1.158,-0.4017 1.407,-0.9062 0,-0.01 0,-0.026 0,-0.031 l 0.03,0 11.688,-22.9687 8.031,0 -15.594,30.6562 c -0.518,1.0028 -1.206,1.7304 -2.156,2.25 -0.955,0.5228 -2.053,0.8125 -3.344,0.8125 -2.739,0 -4.456,-0.9856 -5.531,-3.0625 L 92.75,63.0938 z M 100,107.062 c -2.5063,0 -4.7074,0.922 -6.4688,2.657 -1.7611,1.736 -2.6875,3.898 -2.6874,6.375 l 0,29.062 a 0.742625,0.742625 0 0 0 0.75,0.75 l 8.4682,0 a 0.742625,0.742625 0 0 0 0.75,-0.75 l 0,-28.218 c 0,-0.07 -0.03,-0.03 -0.03,-0.03 0.06,-0.06 0.05,-0.06 0.09,-0.06 l 4.656,0 a 0.742625,0.742625 0 0 0 0.09,0.09 l 0,28.218 a 0.742625,0.742625 0 0 0 0.75,0.75 l 8.437,0 a 0.742625,0.742625 0 0 0 0.75,-0.75 l 0,-28.218 c 0,-0.07 0,-0.03 0,-0.03 0.06,-0.06 0.05,-0.06 0.09,-0.06 l 4.625,0 c 0.05,0 0.01,-0.02 0.03,0 a 0.742625,0.742625 0 0 0 0.06,0.09 l 0,28.218 a 0.742625,0.742625 0 0 0 0.75,0.75 l 8.406,0 a 0.742625,0.742625 0 0 0 0.75,-0.75 l 0,-29.062 c 0,-2.48 -0.927,-4.672 -2.719,-6.406 -1.787,-1.731 -3.989,-2.626 -6.468,-2.626 l -6.313,0 c -0.887,0 -1.775,0.163 -2.625,0.438 -0.01,0 -0.02,0 -0.03,0 l 0,0.03 c -0.649,0.195 -1.122,0.573 -1.594,0.969 -0.472,-0.418 -0.947,-0.835 -1.593,-1.031 -0.834,-0.252 -1.711,-0.407 -2.626,-0.407 l -6.312,0 z m 36.094,0.06 a 0.742625,0.742625 0 0 0 -0.594,0.75 l 0,8.281 a 0.742625,0.742625 0 0 0 0.75,0.75 l 25.781,0 c 0.147,0 0.133,0 0.09,-0.03 -0.04,-0.04 0,-0.06 0,0.09 l 0,4.562 c 0,0.03 0,0 -0.06,0.06 -0.04,0.03 0,0.03 -0.06,0.03 l -25.75,0 a 0.742625,0.742625 0 0 0 -0.75,0.75 l 0,22.813 a 0.742625,0.742625 0 0 0 0.75,0.75 l 7.844,0 a 0.742625,0.742625 0 0 0 0.718,-0.75 l 0,-13.782 18.032,0 c 2.326,0 4.396,-0.918 6.031,-2.656 1.661,-1.765 2.531,-3.934 2.531,-6.375 l 0,-6.219 c 0,-2.468 -0.865,-4.636 -2.531,-6.375 -1.662,-1.734 -3.736,-2.656 -6.063,-2.656 l -26.562,0 a 0.742625,0.742625 0 0 0 -0.156,0 z m -36.094,1.437 6.312,0 c 0.78,0 1.501,0.105 2.188,0.313 0.641,0.194 1.099,0.483 1.438,0.906 a 0.742625,0.742625 0 0 0 1.156,0.03 c 0.331,-0.391 0.788,-0.707 1.468,-0.906 a 0.742625,0.742625 0 0 0 0.03,0 c 0.716,-0.234 1.447,-0.344 2.187,-0.344 l 6.313,0 c 2.134,0 3.896,0.728 5.437,2.219 1.538,1.489 2.25,3.191 2.25,5.313 l 0,28.312 -6.906,0 0,-27.468 c 0,-0.378 -0.208,-0.763 -0.469,-1.032 l 0.03,-0.03 c -0.02,-0.02 -0.05,-0.01 -0.06,-0.03 -0.02,-0.02 -0.01,-0.05 -0.03,-0.06 l -0.03,0.03 c -0.273,-0.258 -0.659,-0.437 -1.031,-0.437 l -4.625,0 c -0.424,0 -0.837,0.193 -1.125,0.469 a 0.742625,0.742625 0 0 0 -0.03,0 c -0.288,0.284 -0.437,0.706 -0.438,1.094 l 0,27.468 -6.968,0 0,-27.468 c 0,-0.378 -0.208,-0.763 -0.469,-1.032 l 0.03,-0.03 c -0.02,-0.02 -0.05,-0.01 -0.06,-0.03 -0.02,-0.02 -0.01,-0.05 -0.03,-0.06 l -0.03,0.03 c -0.273,-0.255 -0.629,-0.437 -1,-0.437 l -4.656,0 c -0.424,0 -0.838,0.193 -1.125,0.469 -0.2879,0.284 -0.4375,0.706 -0.4375,1.094 l 0,27.468 -6.9687,0 0,-28.312 c 0,-2.125 0.7092,-3.856 2.2187,-5.344 1.5093,-1.487 3.2724,-2.188 5.4375,-2.188 z m 37,0.03 25.812,0 c 1.954,0 3.576,0.7 5,2.187 1.422,1.484 2.094,3.239 2.094,5.375 l 0,6.219 c 0,2.105 -0.698,3.828 -2.125,5.344 -1.396,1.484 -2.984,2.187 -4.937,2.187 l -18.75,0 a 0.742625,0.742625 0 0 0 -0.75,0.75 l 0,13.813 -6.344,0 0,-21.344 25,0 c 0.376,0 0.774,-0.177 1.062,-0.437 0.309,-0.283 0.532,-0.722 0.532,-1.157 l 0,-4.562 c 0,-0.396 -0.1,-0.812 -0.406,-1.125 -0.31,-0.313 -0.761,-0.438 -1.157,-0.438 l -25.031,0 0,-6.812 z"
       id="path3046"
       style="font-size:41.873955px;font-style:normal;font-variant:normal;font-weight:bold;font-stretch:normal;text-indent:0;text-align:start;text-decoration:none;line-height:125%;letter-spacing:0px;word-spacing:0px;text-transform:none;direction:ltr;block-progression:tb;writing-mode:lr-tb;text-anchor:start;baseline-shift:baseline;color:#000000;fill:#000000;fill-opacity:1;fill-rule:nonzero;stroke:none;stroke-width:1.485101;marker:none;visibility:visible;display:inline;overflow:visible;enable-background:accumulate;font-family:BoomBox 2;-inkscape-font-specification:BoomBox 2 Bold" />
  </g>
</svg>
