<?xml version="1.0" encoding="UTF-8" standalone="no"?>
<!-- Created with Inkscape (http://www.inkscape.org/) -->

<svg
   xmlns:dc="http://purl.org/dc/elements/1.1/"
   xmlns:cc="http://creativecommons.org/ns#"
   xmlns:rdf="http://www.w3.org/1999/02/22-rdf-syntax-ns#"
   xmlns:svg="http://www.w3.org/2000/svg"
   xmlns="http://www.w3.org/2000/svg"
   xmlns:sodipodi="http://sodipodi.sourceforge.net/DTD/sodipodi-0.dtd"
   xmlns:inkscape="http://www.inkscape.org/namespaces/inkscape"
   version="1.1"
   width="2000"
   height="560"
   id="svg2"
   inkscape:version="0.48.5 r10040"
   sodipodi:docname="logo_horz_raw.svg">
  <sodipodi:namedview
     pagecolor="#ffffff"
     bordercolor="#666666"
     borderopacity="1"
     objecttolerance="10"
     gridtolerance="10"
     guidetolerance="10"
     inkscape:pageopacity="0"
     inkscape:pageshadow="2"
     inkscape:window-width="1594"
     inkscape:window-height="918"
     id="namedview11"
     showgrid="false"
     showguides="true"
     inkscape:guide-bbox="true"
     inkscape:zoom="0.250031"
     inkscape:cx="962.583"
     inkscape:cy="59.882"
     inkscape:window-x="-4"
     inkscape:window-y="11"
     inkscape:window-maximized="0"
     inkscape:current-layer="svg2" />
  <metadata
     id="metadata8">
    <rdf:RDF>
      <cc:Work
         rdf:about="">
        <dc:format>image/svg+xml</dc:format>
        <dc:type
           rdf:resource="http://purl.org/dc/dcmitype/StillImage" />
        <dc:title></dc:title>
      </cc:Work>
    </rdf:RDF>
  </metadata>
  <defs
     id="defs6" />
  <style
     id="style3" />
  <rect
     style="fill:#2c5aa0;stroke:#000000;stroke-width:2.13267199999999990;stroke-linecap:round;stroke-linejoin:round;stroke-miterlimit:4;stroke-opacity:1;stroke-dasharray:none"
     id="rect3859"
     width="1997.87"
     height="557.867"
     x="1.06635"
     y="1.06666" />
  <g
     transform="matrix(1.00746,0,0,0.992599,0,304)"
     id="text4229"
     style="font-size:43.479378px;font-style:normal;font-variant:normal;font-weight:bold;font-stretch:normal;line-height:125%;letter-spacing:0px;word-spacing:0px;fill:#333333;fill-opacity:1;stroke:none;font-family:BoomBox 2;-inkscape-font-specification:BoomBox 2 Bold" />
  <g
     transform="matrix(-4.27576,0,0,4.27576,-31.6824,-158.379)"
     style="font-size:130px;font-style:normal;font-variant:normal;font-weight:bold;font-stretch:normal;line-height:125%;letter-spacing:0px;word-spacing:0px;fill:#ffffff;fill-opacity:1;stroke:none;font-family:Sans;-inkscape-font-specification:Sans Bold"
     id="text3833">
    <path
       inkscape:connector-curvature="0"
       d="m -467.459,96.7705 c 3.089,-0.1693 5.416,-1.6348 6.982,-2.3965 1.566,-0.7617 2.92,-2.0312 4.063,-3.8086 1.142,-1.8196 1.925,-4.0836 2.348,-6.792 0.339,-2.0312 0.508,-5.5647 0.508,-10.6006 0,-8.2096 0.381,-13.9224 1.143,-17.1387 0.761,-3.2583 2.137,-5.8609 4.126,-7.8076 1.989,-1.9888 4.887,-3.5546 8.696,-4.6972 2.581,-0.7617 6.644,-1.1425 12.188,-1.1426 l 3.364,0 -1,14.1709 c -4.698,10e-5 -7.723,1.2751 -9.077,1.8252 -1.312,0.5079 -2.286,1.3119 -2.92,2.4121 -0.635,1.058 -0.952,2.8988 -0.952,5.5224 0,2.6661 -0.191,7.7231 -0.572,15.1709 -0.211,4.1895 -0.761,7.5961 -1.65,10.2198 -0.889,2.5814 -2.031,4.7184 -3.428,6.4111 -1.354,1.6927 -3.449,3.4489 -6.284,5.2689 2.497,1.438 4.528,3.131 6.094,5.078 1.608,1.904 2.835,4.232 3.681,6.982 0.847,2.751 1.397,6.433 1.651,11.045 0.296,7.025 0.444,11.511 0.444,13.457 0,2.793 0.339,4.74 1.016,5.84 0.677,1.1 1.692,1.925 3.047,2.476 1.396,0.592 4.379,1.888 8.95,1.888 l 1,14.235 -3.364,0 c -5.713,0 -10.093,-0.466 -13.14,-1.397 -3.047,-0.889 -5.628,-2.391 -7.744,-4.507 -2.074,-2.116 -3.47,-4.739 -4.19,-7.871 -0.719,-3.089 -1.079,-7.977 -1.079,-14.663 0,-7.786 -0.338,-12.843 -1.015,-15.171 -0.931,-3.385 -2.349,-5.797 -4.253,-7.236 -1.862,-1.481 -4.74,-3.328 -8.633,-3.539 z"
       style="fill:#ffffff"
       id="path3841"
       sodipodi:nodetypes="csccsccccccccscccccccsscccscccscccc" />
  </g>
  <g
     style="font-size:130px;font-style:normal;font-variant:normal;font-weight:bold;font-stretch:normal;line-height:125%;letter-spacing:0px;word-spacing:0px;fill:#ffffff;fill-opacity:1;stroke:none;font-family:Sans;-inkscape-font-specification:Sans Bold"
     id="text3823"
     transform="matrix(4.27576,0,0,4.27576,-31.6824,-158.379)">
    <path
       inkscape:connector-curvature="0"
       d="m 12.9177,96.7705 c 3.0892,-0.1693 5.4167,-1.6348 6.9824,-2.3965 1.5658,-0.7617 2.9199,-2.0312 4.0625,-3.8086 1.1426,-1.8196 1.9255,-4.0836 2.3487,-6.792 0.3385,-2.0312 0.5078,-5.5647 0.5078,-10.6006 0,-8.2096 0.3808,-13.9224 1.1426,-17.1387 0.7616,-3.2583 2.137,-5.8609 4.1259,-7.8076 1.9889,-1.9888 4.8877,-3.5546 8.6963,-4.6972 2.5814,-0.7617 6.6439,-1.1425 12.1875,-1.1426 l 3.3643,0 -1,14.1709 c -4.6973,10e-5 -7.723,1.2751 -9.0772,1.8252 -1.3119,0.5079 -2.2852,1.3119 -2.9199,2.4121 -0.6348,1.058 -0.9522,2.8988 -0.9521,5.5224 -10e-5,2.6661 -0.1905,7.7231 -0.5713,15.1709 -0.2117,4.1895 -0.7618,7.5961 -1.6504,10.2198 -0.8887,2.5814 -2.0313,4.7184 -3.4278,6.4111 -1.3542,1.6927 -3.4489,3.4489 -6.2841,5.2689 2.4967,1.438 4.5279,3.131 6.0937,5.078 1.6081,1.904 2.8353,4.232 3.6817,6.982 0.8463,2.751 1.3964,6.433 1.6503,11.045 0.2962,7.025 0.4443,11.511 0.4444,13.457 -1e-4,2.793 0.3385,4.74 1.0156,5.84 0.6771,1.1 1.6927,1.925 3.0469,2.476 1.3964,0.592 4.3798,1.888 8.9502,1.888 l 1,14.235 -3.3643,0 c -5.7129,0 -10.0928,-0.466 -13.1396,-1.397 -3.0469,-0.889 -5.6283,-2.391 -7.7442,-4.507 -2.0736,-2.116 -3.47,-4.739 -4.1894,-7.871 -0.7194,-3.089 -1.0791,-7.977 -1.0791,-14.663 0,-7.786 -0.3386,-12.843 -1.0157,-15.171 -0.931,-3.385 -2.3486,-5.797 -4.2529,-7.236 -1.862,-1.481 -4.7396,-3.328 -8.6328,-3.539 z"
       style="fill:#ffffff"
       id="path3838"
       sodipodi:nodetypes="ccccscccccccccccccccccscccscccscccc" />
  </g>
  <path
     d="m 1715.87,318.176 c -12.36,13.14 -27.27,19.711 -44.72,19.711 l -153.07,0 0,118.638 -63.94,0 0,-186.224 210.06,0 c 1.76,0 3.31,-0.573 4.63,-1.763 1.54,-1.411 2.32,-3.051 2.32,-4.935 l 0,-37.314 c 0,-4.462 -2.2,-6.688 -6.63,-6.688 l -210.38,0 0,-67.598 216.68,0 c 17.45,0 32.47,6.574 45.05,19.713 12.6,13.139 18.89,29.109 18.89,47.885 l 0,50.7 c 0,18.539 -6.29,34.501 -18.89,47.875 z m -385.06,137.952 0,-230.206 c 0,-1.876 -0.73,-3.41 -2.13,-4.584 -1.19,-1.395 -2.74,-2.104 -4.65,-2.104 l -37.87,0 c -1.91,0 -3.57,0.734 -5,2.104 -1.19,1.174 -1.79,2.708 -1.79,4.584 l 0,230.206 -68.96,0 0,-230.206 c 0,-1.876 -0.73,-3.41 -2.13,-4.584 -1.2,-1.395 -2.75,-2.104 -4.65,-2.104 l -37.87,0 c -1.91,0 -3.57,0.734 -5,2.104 -1.19,1.174 -1.79,2.708 -1.79,4.584 l 0,230.206 -68.95,0 0,-236.894 c 0,-18.767 6.67,-34.729 20.01,-47.877 13.33,-13.14 29.53,-19.705 48.58,-19.705 l 51.45,0 c 6.91,0 13.46,0.938 19.66,2.814 6.19,1.876 11.07,5.04 14.64,9.502 3.57,-4.225 8.57,-7.276 15.01,-9.151 6.42,-2.105 12.97,-3.165 19.64,-3.165 l 51.45,0 c 18.82,0 35.01,6.565 48.58,19.705 13.58,13.148 20.37,29.11 20.37,47.877 l 0,236.894 z"
     id="path3046"
     style="font-size:41.87395500000000226px;font-style:normal;font-variant:normal;font-weight:bold;font-stretch:normal;line-height:125%;letter-spacing:0px;word-spacing:0px;fill:#ffffff;fill-opacity:1;stroke:none;font-family:BoomBox 2;-inkscape-font-specification:BoomBox 2 Bold"
     inkscape:connector-curvature="0" />
  <path
     id="path3040"
     style="font-size:41.78942899999999838px;font-style:normal;font-variant:normal;font-weight:bold;font-stretch:normal;line-height:125%;letter-spacing:0px;word-spacing:0px;fill:#ffffff;fill-opacity:1;stroke:none;font-family:BoomBox 2;-inkscape-font-specification:BoomBox 2 Bold"
     d="m 492.65,426.575 c -4.904,9.756 -11.912,17.183 -21.011,22.292 -9.086,5.118 -19.544,7.675 -31.341,7.675 -24.821,0 -42.284,-9.984 -52.353,-29.967 l -136.421,-276.03 81.49,0 100.648,203.535 c 1.479,2.788 3.57,4.173 6.277,4.173 2.946,0 5.037,-1.385 6.259,-4.173 l 101.02,-203.535 81.868,0 z m 176.2,28.616 32.923,-66.366 95.5,0 -67.305,-135.881 c -1.219,-2.53 -3.288,-3.791 -6.204,-3.791 -3.177,0 -5.384,1.261 -6.585,3.791 l -99.856,202.247 -77.541,0 134.969,-273.804 c 9.744,-20.05 25.953,-30.077 48.641,-30.077 10.967,0 20.485,2.653 28.536,7.943 8.282,5.307 14.858,12.682 19.733,22.134 l 135.323,273.804 z"
     inkscape:connector-curvature="0" />
  <path
     inkscape:connector-curvature="0"
     id="path3770"
     style="fill:#ffffff;fill-opacity:1;stroke:none"
     d="m 1026.57,373.953 c 0,21.254 -17.23,38.482 -38.483,38.482 -21.255,0 -38.482,-17.228 -38.482,-38.482 0,-21.253 17.227,-38.481 38.482,-38.481 21.253,0 38.483,17.228 38.483,38.481 z m 0,-145.375 c 0,21.253 -17.23,38.481 -38.483,38.481 -21.255,0 -38.482,-17.228 -38.482,-38.481 0,-21.253 17.227,-38.482 38.482,-38.482 21.253,0 38.483,17.229 38.483,38.482 z" />
</svg>
